<svg height="100%" viewBox="-5 -5 53 62" fill="none" xmlns="http://www.w3.org/2000/svg">
<mask id="path-1-outside-1_29_4" maskUnits="userSpaceOnUse" x="-5" y="-5" width="53" height="59" fill="black">
<rect fill="white" x="-5" y="-5" width="53" height="59"/>
<path d="M26.008 19.712H37.272C39.576 19.7973 40.984 20.3947 41.496 21.504C41.9227 22.3147 42.136 23.5093 42.136 25.088V39.168C42.136 40.5333 41.5387 41.8347 40.344 43.072C36.76 46.784 31.384 48.64 24.216 48.64C17.8587 48.64 12.3333 46.2507 7.64 41.472C2.94667 36.6507 0.6 30.848 0.6 24.064C0.6 17.28 2.98933 11.6267 7.768 7.104C12.5467 2.53866 18.1787 0.255997 24.664 0.255997C29.6987 0.255997 34.456 1.92 38.936 5.248C40.088 6.10133 40.664 7.06133 40.664 8.128C40.664 9.152 40.1733 10.3467 39.192 11.712C37.528 13.9733 36.0133 15.104 34.648 15.104C33.8373 15.104 32.536 14.528 30.744 13.376C28.952 12.1813 26.8187 11.584 24.344 11.584C21.1013 11.584 18.2213 12.736 15.704 15.04C13.1867 17.3013 11.928 20.288 11.928 24C11.928 27.6693 13.208 30.8053 15.768 33.408C18.328 35.968 21.2293 37.248 24.472 37.248C26.8187 37.248 28.9307 36.864 30.808 36.096V29.12H25.752C24.4293 29.12 23.4907 28.9493 22.936 28.608C22.3813 28.2667 22.0187 27.776 21.848 27.136C21.6773 26.4533 21.592 25.5573 21.592 24.448C21.592 23.296 21.6773 22.3787 21.848 21.696C22.0613 21.0133 22.424 20.544 22.936 20.288C23.704 19.904 24.728 19.712 26.008 19.712Z"/>
</mask>
<path d="M26.008 19.712H37.272C39.576 19.7973 40.984 20.3947 41.496 21.504C41.9227 22.3147 42.136 23.5093 42.136 25.088V39.168C42.136 40.5333 41.5387 41.8347 40.344 43.072C36.76 46.784 31.384 48.64 24.216 48.64C17.8587 48.64 12.3333 46.2507 7.64 41.472C2.94667 36.6507 0.6 30.848 0.6 24.064C0.6 17.28 2.98933 11.6267 7.768 7.104C12.5467 2.53866 18.1787 0.255997 24.664 0.255997C29.6987 0.255997 34.456 1.92 38.936 5.248C40.088 6.10133 40.664 7.06133 40.664 8.128C40.664 9.152 40.1733 10.3467 39.192 11.712C37.528 13.9733 36.0133 15.104 34.648 15.104C33.8373 15.104 32.536 14.528 30.744 13.376C28.952 12.1813 26.8187 11.584 24.344 11.584C21.1013 11.584 18.2213 12.736 15.704 15.04C13.1867 17.3013 11.928 20.288 11.928 24C11.928 27.6693 13.208 30.8053 15.768 33.408C18.328 35.968 21.2293 37.248 24.472 37.248C26.8187 37.248 28.9307 36.864 30.808 36.096V29.12H25.752C24.4293 29.12 23.4907 28.9493 22.936 28.608C22.3813 28.2667 22.0187 27.776 21.848 27.136C21.6773 26.4533 21.592 25.5573 21.592 24.448C21.592 23.296 21.6773 22.3787 21.848 21.696C22.0613 21.0133 22.424 20.544 22.936 20.288C23.704 19.904 24.728 19.712 26.008 19.712Z" fill="#FFD640"/>
<path d="M37.272 19.712L37.4571 14.7154L37.3646 14.712H37.272V19.712ZM41.496 21.504L36.9562 23.5993L37.0108 23.7175L37.0714 23.8327L41.496 21.504ZM40.344 43.072L36.747 39.599L36.747 39.599L40.344 43.072ZM7.64 41.472L4.05723 44.9597L4.06498 44.9676L4.07276 44.9755L7.64 41.472ZM7.768 7.104L11.2049 10.7355L11.2134 10.7274L11.2219 10.7193L7.768 7.104ZM38.936 5.248L35.9544 9.26172L35.9599 9.26578L38.936 5.248ZM39.192 11.712L43.2192 14.6754L43.2358 14.6529L43.2521 14.6302L39.192 11.712ZM30.744 13.376L27.9705 17.5363L28.0052 17.5594L28.0402 17.5819L30.744 13.376ZM15.704 15.04L19.0453 18.7596L19.0626 18.7441L19.0798 18.7284L15.704 15.04ZM15.768 33.408L12.2034 36.9142L12.2179 36.9289L12.2325 36.9435L15.768 33.408ZM30.808 36.096L32.7012 40.7237L35.808 39.4528V36.096H30.808ZM30.808 29.12H35.808V24.12H30.808V29.12ZM22.936 28.608L20.3155 32.8663L20.3155 32.8663L22.936 28.608ZM21.848 27.136L16.9973 28.3487L17.0068 28.3866L17.0168 28.4243L21.848 27.136ZM21.848 21.696L17.0756 20.2046L17.0324 20.3428L16.9973 20.4833L21.848 21.696ZM22.936 20.288L20.6999 15.8159L20.6999 15.8159L22.936 20.288ZM26.008 24.712H37.272V14.712H26.008V24.712ZM37.0869 24.7086C37.4724 24.7228 37.7464 24.7562 37.9276 24.7895C38.1117 24.8234 38.1556 24.8491 38.1033 24.8269C38.0476 24.8033 37.8575 24.7142 37.6222 24.505C37.3744 24.2848 37.1315 23.9791 36.9562 23.5993L46.0358 19.4087C44.2193 15.4729 39.9731 14.8086 37.4571 14.7154L37.0869 24.7086ZM37.0714 23.8327C36.9821 23.663 37.0101 23.6417 37.0539 23.887C37.096 24.1228 37.136 24.5108 37.136 25.088H47.136C47.136 23.2072 46.9068 21.0491 45.9206 19.1753L37.0714 23.8327ZM37.136 25.088V39.168H47.136V25.088H37.136ZM37.136 39.168C37.136 39.1414 37.1393 39.1122 37.1449 39.0871C37.1504 39.0627 37.154 39.06 37.1439 39.0822C37.1223 39.129 37.0291 39.3068 36.747 39.599L43.941 46.545C45.7907 44.6292 47.136 42.1434 47.136 39.168H37.136ZM36.747 39.599C34.424 42.0049 30.5678 43.64 24.216 43.64V53.64C32.2002 53.64 39.096 51.5631 43.941 46.545L36.747 39.599ZM24.216 43.64C19.2785 43.64 15.0166 41.8471 11.2072 37.9685L4.07276 44.9755C9.65006 50.6542 16.4389 53.64 24.216 53.64V43.64ZM11.2228 37.9843C7.44654 34.1051 5.6 29.5572 5.6 24.064H-4.4C-4.4 32.1388 -1.5532 39.1962 4.05723 44.9597L11.2228 37.9843ZM5.6 24.064C5.6 18.6057 7.45851 14.2812 11.2049 10.7355L4.33108 3.47253C-1.47984 8.97215 -4.4 15.9543 -4.4 24.064H5.6ZM11.2219 10.7193C15.0901 7.02386 19.4923 5.256 24.664 5.256V-4.744C16.865 -4.744 10.0033 -1.94653 4.31409 3.48868L11.2219 10.7193ZM24.664 5.256C28.5082 5.256 32.2381 6.50108 35.9544 9.26172L41.9176 1.23428C36.6739 -2.66109 30.8891 -4.744 24.664 -4.744V5.256ZM35.9599 9.26578C36.1499 9.40658 36.0748 9.39756 35.9445 9.18048C35.8764 9.06693 35.802 8.91032 35.7465 8.71492C35.6905 8.51801 35.664 8.31773 35.664 8.128H45.664C45.664 4.96704 43.8625 2.67495 41.9121 1.23021L35.9599 9.26578ZM35.664 8.128C35.664 7.84247 35.7309 7.74624 35.6709 7.8924C35.6102 8.04012 35.4594 8.33818 35.1319 8.79382L43.2521 14.6302C44.4869 12.9122 45.664 10.6794 45.664 8.128H35.664ZM35.1648 8.7486C34.4977 9.65524 34.038 10.0843 33.817 10.2492C33.5984 10.4125 33.9074 10.104 34.648 10.104V20.104C36.7539 20.104 38.5029 19.2302 39.799 18.2628C41.0927 17.297 42.2223 16.0301 43.2192 14.6754L35.1648 8.7486ZM34.648 10.104C35.0139 10.104 35.238 10.1652 35.2636 10.1722C35.3009 10.1824 35.2477 10.1707 35.0877 10.0999C34.7577 9.9538 34.2222 9.66796 33.4478 9.17011L28.0402 17.5819C29.0578 18.236 30.0689 18.8142 31.0403 19.2441C31.9184 19.6328 33.2053 20.104 34.648 20.104V10.104ZM33.5175 9.21575C30.7867 7.39523 27.6545 6.584 24.344 6.584V16.584C25.9828 16.584 27.1173 16.9674 27.9705 17.5363L33.5175 9.21575ZM24.344 6.584C19.7817 6.584 15.7144 8.25243 12.3282 11.3516L19.0798 18.7284C20.7283 17.2196 22.421 16.584 24.344 16.584V6.584ZM12.3627 11.3204C8.68029 14.6283 6.928 19.0229 6.928 24H16.928C16.928 21.5531 17.693 19.9744 19.0453 18.7596L12.3627 11.3204ZM6.928 24C6.928 28.9736 8.71824 33.371 12.2034 36.9142L19.3326 29.9018C17.6978 28.2397 16.928 26.3651 16.928 24H6.928ZM12.2325 36.9435C15.6107 40.3217 19.7433 42.248 24.472 42.248V32.248C22.7154 32.248 21.0453 31.6143 19.3035 29.8725L12.2325 36.9435ZM24.472 42.248C27.3672 42.248 30.1362 41.773 32.7012 40.7237L28.9148 31.4683C27.7251 31.955 26.2702 32.248 24.472 32.248V42.248ZM35.808 36.096V29.12H25.808V36.096H35.808ZM30.808 24.12H25.752V34.12H30.808V24.12ZM25.752 24.12C25.5268 24.12 25.3472 24.1127 25.2083 24.1022C25.0681 24.0916 24.9853 24.079 24.9504 24.0726C24.9135 24.0659 24.9521 24.0702 25.0456 24.1023C25.1375 24.1338 25.3227 24.2058 25.5565 24.3497L20.3155 32.8663C22.1277 33.9815 24.2806 34.12 25.752 34.12V24.12ZM25.5565 24.3497C25.7868 24.4915 26.0449 24.709 26.2689 25.012C26.4919 25.3137 26.6165 25.6128 26.6792 25.8477L17.0168 28.4243C17.511 30.2773 18.6506 31.8417 20.3155 32.8663L25.5565 24.3497ZM26.6987 25.9233C26.667 25.7966 26.592 25.3542 26.592 24.448H16.592C16.592 25.7605 16.6876 27.1101 16.9973 28.3487L26.6987 25.9233ZM26.592 24.448C26.592 23.481 26.6698 23.0244 26.6987 22.9087L16.9973 20.4833C16.6849 21.7329 16.592 23.111 16.592 24.448H26.592ZM26.6204 23.1874C26.5855 23.299 26.4839 23.569 26.2364 23.8892C25.9751 24.2274 25.6132 24.5396 25.1721 24.7601L20.6999 15.8159C18.6842 16.8237 17.5868 18.5688 17.0756 20.2046L26.6204 23.1874ZM25.1721 24.7601C25.0632 24.8146 25.0524 24.7983 25.2014 24.7704C25.3501 24.7425 25.61 24.712 26.008 24.712V14.712C24.3013 14.712 22.4188 14.9564 20.6999 15.8159L25.1721 24.7601Z" fill="black" mask="url(#path-1-outside-1_29_4)"/>
</svg>
